<?xml version="1.0" encoding="utf-8"?>
<!-- Generator: Adobe Illustrator 22.1.0, SVG Export Plug-In . SVG Version: 6.00 Build 0)  -->
<svg version="1.1" id="Calque_1" xmlns="http://www.w3.org/2000/svg" xmlns:xlink="http://www.w3.org/1999/xlink" x="0px" y="0px"
	 viewBox="0 0 290.6 71.7" style="enable-background:new 0 0 290.6 71.7;" xml:space="preserve">
<style type="text/css">
	.st0{fill:#E72460;}
</style>
<g>
	<rect x="-0.4" y="20" transform="matrix(0.7651 -0.6439 0.6439 0.7651 -12.567 6.494)" class="st0" width="6" height="1"/>
	<rect x="9.6" y="11.1" transform="matrix(0.7651 -0.6439 0.6439 0.7651 -4.3566 11.2098)" class="st0" width="7.2" height="1"/>
	<polygon class="st0" points="28.9,6.1 25.9,1.5 21.8,5 21.1,4.2 26.2,0 29.7,5.5 	"/>
	<path class="st0" d="M61.7,57.3l-5.5-8.5l0.8-0.5l5.5,8.5L61.7,57.3z M50.8,40.3l-5.5-8.5l0.8-0.5l5.5,8.5L50.8,40.3z M39.8,23.2
		l-5.5-8.5l0.8-0.5l5.5,8.5L39.8,23.2z"/>
	<polygon class="st0" points="70.9,71.7 67.2,65.9 68,65.4 70.7,69.6 72.9,65 73.8,65.4 	"/>
	<rect x="74.7" y="49.5" transform="matrix(0.4157 -0.9095 0.9095 0.4157 1.4624 102.2011)" class="st0" width="11.2" height="1"/>
	<polygon class="st0" points="93.5,39.6 89.7,30.5 87.7,34.9 86.8,34.5 89.7,28 93.9,37.9 97.7,34.3 98.4,35 	"/>
	<rect x="104.5" y="23" transform="matrix(0.7273 -0.6863 0.6863 0.7273 13.8335 81.8153)" class="st0" width="10.8" height="1"/>
	<polygon class="st0" points="122,12.7 121.3,12 126,7.6 130.9,11.8 130.2,12.6 126.1,8.9 	"/>
	<path class="st0" d="M183.5,59.3l-8.9-7.8l0.7-0.8l8.9,7.8L183.5,59.3z M165.7,43.7l-8.9-7.8l0.7-0.8l8.9,7.8L165.7,43.7z
		 M148,28.2l-8.9-7.8l0.7-0.8l8.9,7.8L148,28.2z"/>
	<polygon class="st0" points="197.3,71.4 192.3,67.1 193,66.3 197.1,69.9 200.1,65.4 200.9,65.9 	"/>
	<polygon class="st0" points="208.7,54 207.9,53.5 211.4,48.1 217.3,50.8 216.9,51.7 211.8,49.4 	"/>
	<rect x="228.8" y="52.3" transform="matrix(0.4126 -0.9109 0.9109 0.4126 82.9755 242.175)" class="st0" width="1" height="8.9"/>
	<polygon class="st0" points="247.1,65.4 241.3,62.7 241.7,61.8 246.8,64.1 249.9,59.5 250.7,60.1 	"/>
	<path class="st0" d="M258,49.2l-0.8-0.6l7.3-10.8l0.8,0.6L258,49.2z M272.6,27.6l-0.8-0.6l7.3-10.8l0.8,0.6L272.6,27.6z"/>
	<rect x="285.5" y="2.7" transform="matrix(0.5605 -0.8281 0.8281 0.5605 124.1161 240.3581)" class="st0" width="6" height="1"/>
</g>
</svg>
